HIERARCHY
ROOT Hips
{
	OFFSET 0.000000 0.000000 0.000000
	CHANNELS 6 Xposition Yposition Zposition Xrotation Yrotation Zrotation
	JOINT LeftUpLeg_virtual
	{
		OFFSET 0.000000 0.000000 0.000000
		CHANNELS 3 Xrotation Yrotation Zrotation
		JOINT LeftUpLeg
		{
			OFFSET 10.205400 -3.823500 0.155100
			CHANNELS 3 Xrotation Yrotation Zrotation
			JOINT LeftLeg
			{
				OFFSET 0.708757 -12.982077 0.567790
				CHANNELS 3 Xrotation Yrotation Zrotation
				JOINT LeftFoot
				{
					OFFSET -0.708756 -10.717838 -2.184338
					CHANNELS 3 Xrotation Yrotation Zrotation
					JOINT LeftToeBase
					{
						OFFSET 0.108149 -7.191104 7.560241
						CHANNELS 3 Xrotation Yrotation Zrotation
						JOINT LeftToe_End
						{
							OFFSET 0.070230 0.081724 4.490308
							CHANNELS 3 Xrotation Yrotation Zrotation
							End Site
							{
								OFFSET 0 0 0
							}
						}
					}
				}
			}
		}
	}
	JOINT RightUpLeg_virtual
	{
		OFFSET 0.000000 0.000000 0.000000
		CHANNELS 3 Xrotation Yrotation Zrotation
		JOINT RightUpLeg
		{
			OFFSET -10.205400 -3.823500 0.005500
			CHANNELS 3 Xrotation Yrotation Zrotation
			JOINT RightLeg
			{
				OFFSET -0.708756 -12.982134 0.610632
				CHANNELS 3 Xrotation Yrotation Zrotation
				JOINT RightFoot
				{
					OFFSET 0.708754 -10.717769 -1.945823
					CHANNELS 3 Xrotation Yrotation Zrotation
					JOINT RightToeBase
					{
						OFFSET -0.108140 -7.191069 7.372968
						CHANNELS 3 Xrotation Yrotation Zrotation
						JOINT RightToe_End
						{
							OFFSET -0.070227 0.081735 4.479403
							CHANNELS 3 Xrotation Yrotation Zrotation
							End Site
							{
								OFFSET 0 0 0
							}
						}
					}
				}
			}
		}
	}
	JOINT Spine_virtual
	{
		OFFSET 0.000000 0.000000 0.000000
		CHANNELS 3 Xrotation Yrotation Zrotation
		JOINT Spine
		{
			OFFSET 0.000000 6.876099 0.125700
			CHANNELS 3 Xrotation Yrotation Zrotation
			JOINT Spine1
			{
				OFFSET 0.000000 5.730043 0.104720
				CHANNELS 3 Xrotation Yrotation Zrotation
				JOINT Spine1_split
				{
					OFFSET 0.000000 5.730043 0.104720
					CHANNELS 3 Xrotation Yrotation Zrotation
					JOINT Spine2
					{
						OFFSET 0.000000 5.730043 0.104720
						CHANNELS 3 Xrotation Yrotation Zrotation
						JOINT Neck_virtual
						{
							OFFSET 0.000000 0.000000 0.000000
							CHANNELS 3 Xrotation Yrotation Zrotation
							JOINT Neck
							{
								OFFSET 0.000000 10.314075 0.188496
								CHANNELS 3 Xrotation Yrotation Zrotation
								JOINT Head
								{
									OFFSET 0.000000 7.643700 -2.377400
									CHANNELS 3 Xrotation Yrotation Zrotation
									JOINT HeadTop_End
									{
										OFFSET 0.000000 43.788605 -13.619600
										CHANNELS 3 Xrotation Yrotation Zrotation
										End Site
										{
											OFFSET 0 0 0
										}
									}
								}
							}
						}
						JOINT LeftShoulder_virtual
						{
							OFFSET 0.000000 0.000000 0.000000
							CHANNELS 3 Xrotation Yrotation Zrotation
							JOINT LeftShoulder
							{
								OFFSET 2.196100 4.412489 0.087492
								CHANNELS 3 Xrotation Yrotation Zrotation
								JOINT LeftShoulder_split
								{
									OFFSET 2.196100 4.412489 0.087492
									CHANNELS 3 Xrotation Yrotation Zrotation
									JOINT LeftArm
									{
										OFFSET 8.771219 -2.981674 -0.026999
										CHANNELS 3 Xrotation Yrotation Zrotation
										JOINT LeftForeArm
										{
											OFFSET 8.512804 0.000000 -0.000000
											CHANNELS 3 Xrotation Yrotation Zrotation
											JOINT LeftHand
											{
												OFFSET 18.484802 0.000000 -0.000000
												CHANNELS 3 Xrotation Yrotation Zrotation
												End Site
												{
													OFFSET 0 0 0
												}
											}
										}
									}
								}
							}
						}
						JOINT RightShoulder_virtual
						{
							OFFSET 0.000000 0.000000 0.000000
							CHANNELS 3 Xrotation Yrotation Zrotation
							JOINT RightShoulder
							{
								OFFSET -2.196100 4.412496 0.070690
								CHANNELS 3 Xrotation Yrotation Zrotation
								JOINT RightShoulder_split
								{
									OFFSET -2.196100 4.412496 0.070690
									CHANNELS 3 Xrotation Yrotation Zrotation
									JOINT RightArm
									{
										OFFSET -8.771282 -2.981682 -0.094208
										CHANNELS 3 Xrotation Yrotation Zrotation
										JOINT RightForeArm
										{
											OFFSET -8.494598 0.000000 0.000000
											CHANNELS 3 Xrotation Yrotation Zrotation
											JOINT RightHand
											{
												OFFSET -18.483803 0.000000 0.000001
												CHANNELS 3 Xrotation Yrotation Zrotation
												End Site
												{
													OFFSET 0 0 0
												}
											}
										}
									}
								}
							}
						}
					}
				}
			}
		}
	}
}
MOTION
Frames: 9
Frame Time: 0.03333333
-3.101419 25.830151 -50.869453 0.000000 0.000000 0.000000 162.577108 -72.484775 156.683242 -55.790563 -9.551762 38.261712 37.793779 -12.018342 -2.315569 19.277867 5.432791 -17.327428 0.719292 2.193029 1.716431 0.000000 0.000000 0.000000 158.078677 -72.976856 152.628514 -43.397813 0.613606 -28.358235 46.078205 3.710778 1.992884 -3.178600 -2.702629 13.768056 -8.044947 -0.805558 -0.126869 0.000000 0.000000 0.000000 160.024803 -74.886228 154.061706 5.164852 8.153060 -0.497160 -0.437899 12.518975 2.804695 -0.204912 2.536761 1.145284 0.000000 0.000000 0.000000 9.211997 14.617337 0.355213 4.911693 9.429878 -6.001831 -9.231031 16.269003 7.391996 0.000000 0.000000 0.000000 6.450703 15.280955 0.368378 6.682122 9.865288 -11.632033 12.717090 1.408010 -1.552854 -52.126255 -34.499371 -46.936831 32.091524 -87.097070 28.076842 0.000000 0.000000 0.000000 7.469630 15.145540 1.449995 -13.532515 2.704185 -3.358884 11.834366 0.609262 -6.100849 -91.929702 38.100602 109.623150 -8.085030 40.833941 4.805760 0.000000 0.000000 0.000000 
-2.155270 25.965006 -52.812225 0.000000 0.000000 0.000000 161.414336 -74.030296 155.909928 -57.379265 -7.803423 36.791804 37.802194 -11.861340 -1.668601 19.393393 4.602960 -18.487177 -0.127554 2.025633 1.710379 0.000000 0.000000 0.000000 159.934180 -73.697584 155.029352 -43.409216 -3.255849 -23.557809 52.975193 1.359483 2.953727 -7.256550 -4.979535 11.395081 -8.778151 -0.682178 -0.335373 0.000000 0.000000 0.000000 162.548230 -74.046142 156.628751 6.005938 7.615450 -0.707464 -0.542078 11.646705 3.056616 0.049417 2.451058 1.034832 0.000000 0.000000 0.000000 9.295979 13.896422 0.553393 3.918940 10.377538 -6.972885 -10.409385 17.587795 7.956178 0.000000 0.000000 0.000000 6.665907 14.403831 0.661752 6.219820 9.517207 -11.326850 13.505180 4.351981 -2.057555 -52.180299 -34.608657 -47.598810 38.708622 -87.560484 34.475489 0.000000 0.000000 0.000000 7.448643 14.274042 1.613393 -13.519421 1.930310 -4.013355 12.525478 0.392666 -7.285081 -92.445210 39.316932 110.045057 -7.874204 40.523130 4.639315 0.000000 0.000000 0.000000 
-1.450321 26.039221 -54.035973 0.000000 0.000000 0.000000 159.572658 -75.865971 154.193050 -60.182853 -6.621482 35.037535 40.595093 -11.309413 -1.004301 18.726651 4.152778 -18.493140 -1.553795 1.956521 1.112280 0.000000 0.000000 0.000000 161.384639 -74.247489 156.721067 -42.456941 -6.266755 -19.876583 57.145590 -0.006773 3.153940 -11.253859 -6.581903 10.301140 -8.811407 -0.372150 -0.401171 0.000000 0.000000 0.000000 164.332343 -73.300190 158.490291 6.574397 7.478366 -0.726663 -0.621712 10.984391 3.206171 0.184799 2.218366 1.020222 0.000000 0.000000 0.000000 9.546229 13.362135 0.610154 3.063968 10.984067 -7.908661 -11.253711 18.711498 8.129400 0.000000 0.000000 0.000000 6.924053 13.735925 0.790553 5.801955 9.414680 -11.178469 13.796541 6.677873 -1.821558 -52.689438 -34.766626 -48.386863 31.942759 -87.333613 27.482451 0.000000 0.000000 0.000000 7.529065 13.611818 1.656629 -13.511361 1.273440 -4.522072 12.650964 -0.195412 -8.056039 -92.921158 40.698635 110.311366 -7.491028 40.332656 4.339761 0.000000 0.000000 0.000000 
-1.118794 26.098927 -54.679039 0.000000 0.000000 0.000000 157.153241 -77.422919 151.728117 -63.148371 -5.574765 34.020390 44.233900 -10.513792 -0.674439 18.128586 4.239216 -17.354181 -1.868617 2.046689 -0.092007 0.000000 0.000000 0.000000 161.567141 -74.656146 156.853983 -41.280086 -7.938509 -17.880636 57.825140 -0.201921 2.602773 -14.293617 -7.362538 10.237549 -7.404939 -0.003508 -0.138550 0.000000 0.000000 0.000000 165.227535 -72.904743 159.515339 6.858706 7.643245 -0.727168 -0.656260 10.552856 3.216268 0.141116 1.750758 0.962704 0.000000 0.000000 0.000000 9.772129 13.027995 0.543572 2.324624 11.204526 -8.567286 -11.554850 19.455357 8.064254 0.000000 0.000000 0.000000 7.138615 13.283260 0.756990 5.445973 9.684645 -10.927381 13.327798 8.317472 -1.130693 -53.371020 -34.788845 -49.156134 20.142667 -86.327949 15.455460 0.000000 0.000000 0.000000 7.616809 13.165850 1.589785 -13.507082 0.640050 -4.809708 12.399073 -0.493833 -8.814478 -93.520808 42.162556 110.658955 -6.952940 39.772799 3.958597 0.000000 0.000000 0.000000 
-1.064144 26.171249 -54.927620 0.000000 0.000000 0.000000 155.971372 -78.093316 150.512999 -65.158584 -4.433957 34.108264 46.615351 -10.079166 -0.634000 17.853638 4.488144 -16.044645 -1.150031 2.198538 -1.261078 0.000000 0.000000 0.000000 161.831729 -74.687115 157.058492 -40.719686 -8.125466 -17.776839 56.796397 0.638614 1.838164 -15.935911 -7.250577 10.535983 -4.408633 0.249427 0.412538 0.000000 0.000000 0.000000 165.590273 -72.721748 160.027166 6.993632 7.913692 -0.844359 -0.639973 10.342342 3.146313 0.009743 1.355027 0.795664 0.000000 0.000000 0.000000 9.826998 12.853631 0.426101 1.818099 11.081556 -8.874939 -11.294817 19.690903 7.882854 0.000000 0.000000 0.000000 7.235122 13.024162 0.651023 5.163281 10.227864 -10.435055 12.156736 9.085355 -0.744423 -53.883861 -34.702135 -49.714768 13.498930 -84.947042 8.594839 0.000000 0.000000 0.000000 7.621141 12.911661 1.500782 -13.514215 -0.066302 -4.881636 11.898201 -0.462993 -9.377892 -94.155592 43.633332 111.292106 -6.344257 38.715469 3.612963 0.000000 0.000000 0.000000 
-1.234475 26.245756 -54.879639 0.000000 0.000000 0.000000 156.289700 -77.993903 150.925925 -65.495736 -3.040611 34.909473 46.913458 -9.958517 -0.661006 17.729337 4.830664 -14.736230 -0.247836 2.292298 -1.983558 0.000000 0.000000 0.000000 161.537649 -74.446589 156.724264 -40.918745 -7.211957 -19.037979 55.696077 2.127534 1.313714 -16.061352 -6.642277 11.074703 -1.347331 0.314108 1.012590 0.000000 0.000000 0.000000 165.334728 -72.657175 159.871369 7.050961 8.069670 -1.175321 -0.615754 10.277304 3.061659 -0.151931 1.185043 0.690687 0.000000 0.000000 0.000000 9.683372 12.775607 0.342850 1.588001 10.595754 -8.791938 -10.547288 19.230200 7.694256 0.000000 0.000000 0.000000 7.141865 12.907714 0.595365 4.967542 10.865012 -9.726755 10.557606 8.610768 -0.604401 -53.946938 -34.506809 -49.930506 11.414995 -83.921039 6.296759 0.000000 0.000000 0.000000 7.517070 12.785063 1.484165 -13.528492 -0.955422 -4.806799 11.375082 -0.173249 -9.921627 -94.470320 44.772238 112.074812 -5.793370 37.566993 3.411419 0.000000 0.000000 0.000000 
-1.457247 26.316605 -54.645645 0.000000 0.000000 0.000000 158.072174 -77.368585 153.084593 -64.658607 -1.563150 35.798367 45.822226 -10.248841 -0.486609 17.993754 4.932121 -13.812130 0.238642 2.283615 -1.997636 0.000000 0.000000 0.000000 161.295928 -74.184160 156.670565 -41.669007 -5.663431 -20.777903 55.435731 3.698554 1.163492 -15.030770 -5.865320 11.934070 0.414930 0.036416 1.365653 0.000000 0.000000 0.000000 164.737947 -72.607254 159.373203 7.053255 7.988988 -1.719070 -0.644257 10.268513 3.026853 0.052328 1.159191 0.627822 0.000000 0.000000 0.000000 9.284129 12.743857 0.380088 1.591988 9.881144 -8.400156 -9.650712 18.228873 7.656510 0.000000 0.000000 0.000000 6.836162 12.858985 0.627771 4.876440 11.459058 -8.958730 9.040833 7.368711 -0.692116 -53.446818 -34.288789 -49.825086 12.460605 -83.590935 7.061268 0.000000 0.000000 0.000000 7.272412 12.739205 1.577159 -13.582943 -2.066996 -4.676409 11.051279 0.450871 -10.549132 -94.242800 45.127453 112.708305 -5.444996 36.611566 3.403862 0.000000 0.000000 0.000000 
-1.575885 26.357174 -54.382095 0.000000 0.000000 0.000000 161.176714 -76.509245 156.783031 -63.352122 -0.610689 36.115974 44.756621 -11.093939 -0.088729 18.882879 4.418060 -13.635964 -0.430473 2.153266 -1.185377 0.000000 0.000000 0.000000 162.275323 -73.996815 158.252614 -42.364638 -4.229340 -22.129272 56.076123 4.994889 1.253481 -13.853012 -5.000050 12.801844 0.530976 -0.432776 1.472761 0.000000 0.000000 0.000000 164.141986 -72.632286 158.773703 7.069934 7.713750 -2.327033 -0.753725 10.278658 3.060587 0.288299 1.450932 0.615946 0.000000 0.000000 0.000000 8.782405 12.734579 0.539047 1.949049 8.999286 -7.847229 -8.854343 16.921963 7.761672 0.000000 0.000000 0.000000 6.368105 12.855096 0.748865 4.913241 11.885179 -8.423823 7.930423 5.551831 -0.820733 -52.359561 -34.255332 -49.282636 15.583736 -83.678977 9.789690 0.000000 0.000000 0.000000 6.919895 12.763665 1.795516 -13.675856 -3.246418 -4.615416 10.972085 1.148571 -11.072251 -93.567048 44.485674 113.109258 -5.357176 36.152765 3.543999 0.000000 0.000000 0.000000 
-1.516686 26.420448 -54.119911 0.000000 0.000000 0.000000 164.037197 -75.848151 160.377882 -62.352619 -0.588066 35.402076 44.775435 -11.798699 0.336621 19.915189 3.822860 -13.347849 -1.656699 1.928703 -0.093485 0.000000 0.000000 0.000000 164.158242 -73.987259 161.032092 -42.519512 -3.480741 -22.694806 56.551538 5.561081 1.403464 -13.530600 -4.400155 12.805277 -0.129623 -0.822655 1.459286 0.000000 0.000000 0.000000 163.748198 -72.692378 158.242055 7.115522 7.302296 -2.821992 -0.928990 10.293736 3.122267 0.367959 1.840896 0.593653 0.000000 0.000000 0.000000 8.345569 12.752600 0.732263 2.623820 8.049138 -7.282647 -8.295231 15.504849 7.939930 0.000000 0.000000 0.000000 5.852485 12.900732 0.873590 5.046783 12.094882 -8.268638 7.577548 4.064902 -0.524078 -50.949222 -34.579247 -48.290865 19.944946 -83.773349 13.618419 0.000000 0.000000 0.000000 6.558988 12.847082 2.027953 -13.773510 -4.322773 -4.698721 10.848054 1.739117 -11.419436 -92.888961 42.987349 113.424696 -5.485278 36.098602 3.745000 0.000000 0.000000 0.000000 
